<svg width="42" height="30" viewBox="0 0 42 30" fill="none" xmlns="http://www.w3.org/2000/svg">
<path d="M41.4375 11.3542C41.3125 11.2708 40.2709 10.4583 38.0209 10.4583C37.4375 10.4583 36.8542 10.5208 36.2709 10.625C35.8334 7.70833 33.3959 6.22917 33.2917 6.16667L32.6875 5.8125L32.3125 6.375C31.8125 7.125 31.4167 7.97917 31.25 8.85417C30.8334 10.5208 31.0834 12.1042 31.9375 13.4583C30.9167 14.0417 29.25 14.1875 28.8959 14.1875H1.45835C0.75002 14.1875 0.166687 14.7708 0.166687 15.5C0.166687 17.8958 0.541687 20.2917 1.37502 22.5417C2.31252 25.0208 3.72919 26.8542 5.54169 27.9792C7.58335 29.2292 10.9375 29.9375 14.75 29.9375C16.3959 29.9375 18.1042 29.7917 19.7917 29.4792C22.125 29.0625 24.375 28.25 26.4375 27.0625C28.1457 26.0857 29.6746 24.8246 30.9584 23.3333C33.1459 20.8958 34.4375 18.125 35.375 15.7292H35.7709C38.1459 15.7292 39.625 14.7708 40.4375 13.9583C40.9792 13.4583 41.375 12.8542 41.6667 12.1458L41.8334 11.6458L41.4375 11.3542ZM4.02085 13.4167H7.68752C7.85419 13.4167 8.02085 13.2708 8.02085 13.0833V9.79167C8.02085 9.625 7.87502 9.45833 7.68752 9.45833H4.02085C3.83335 9.45833 3.68752 9.60417 3.68752 9.79167V13.0833C3.70835 13.2708 3.83335 13.4167 4.02085 13.4167ZM9.08335 13.4167H12.75C12.9167 13.4167 13.0834 13.2708 13.0834 13.0833V9.79167C13.0834 9.625 12.9375 9.45833 12.75 9.45833H9.08335C8.89585 9.45833 8.75002 9.60417 8.75002 9.79167V13.0833C8.77085 13.2708 8.89585 13.4167 9.08335 13.4167ZM14.2292 13.4167H17.875C18.0834 13.4167 18.2292 13.2708 18.2292 13.0833V9.79167C18.2292 9.625 18.1042 9.45833 17.875 9.45833H14.2292C14.0625 9.45833 13.9167 9.60417 13.9167 9.79167V13.0833C13.9167 13.2708 14.0417 13.4167 14.2292 13.4167ZM19.3125 13.4167H23C23.1667 13.4167 23.3125 13.2708 23.3125 13.0833V9.79167C23.3125 9.625 23.1875 9.45833 23 9.45833H19.3125C19.1459 9.45833 19 9.60417 19 9.79167V13.0833C19 13.2708 19.1459 13.4167 19.3125 13.4167ZM9.08335 8.75H12.75C12.9167 8.75 13.0834 8.5625 13.0834 8.375V5.10417C13.0834 4.91667 12.9375 4.77083 12.75 4.77083H9.08335C8.89585 4.77083 8.75002 4.89583 8.75002 5.10417V8.375C8.77085 8.5625 8.89585 8.75 9.08335 8.75ZM14.2292 8.75H17.875C18.0834 8.75 18.2292 8.5625 18.2292 8.375V5.10417C18.2292 4.91667 18.1042 4.77083 17.875 4.77083H14.2292C14.0625 4.77083 13.9167 4.89583 13.9167 5.10417V8.375C13.9167 8.5625 14.0417 8.75 14.2292 8.75ZM19.3125 8.75H23C23.1667 8.75 23.3125 8.5625 23.3125 8.375V5.10417C23.3125 4.91667 23.1667 4.77083 23 4.77083H19.3125C19.1459 4.77083 19 4.89583 19 5.10417V8.375C19 8.5625 19.1459 8.75 19.3125 8.75ZM19.3125 4H23C23.1667 4 23.3125 3.85417 23.3125 3.66667V0.416667C23.3125 0.208333 23.1667 0.0625 23 0.0625H19.3125C19.1459 0.0625 19 0.1875 19 0.416667V3.66667C19 3.83333 19.1459 4 19.3125 4ZM24.4375 13.4167H28.1042C28.2917 13.4167 28.4375 13.2708 28.4375 13.0833V9.79167C28.4375 9.625 28.2917 9.45833 28.1042 9.45833H24.4375C24.2709 9.45833 24.125 9.60417 24.125 9.79167V13.0833C24.125 13.2708 24.2709 13.4167 24.4375 13.4167Z" fill="#0288D1"/>
</svg>
